<svg xmlns="http://www.w3.org/2000/svg" xmlns:xlink="http://www.w3.org/1999/xlink" width="500" zoomAndPan="magnify" viewBox="0 0 375 299.999988" height="400" preserveAspectRatio="xMidYMid meet" version="1.0"><defs><g><g id="id1"/></g><clipPath id="id2"><path d="M 15 41.378906 L 187.5 41.378906 L 187.5 134.097656 L 15 134.097656 Z M 15 41.378906 " clip-rule="nonzero"/></clipPath><clipPath id="id3"><path d="M 159 44 L 187.5 44 L 187.5 66 L 159 66 Z M 159 44 " clip-rule="nonzero"/></clipPath></defs><g clip-path="url(#id2)"><path fill="rgb(43.919373%, 72.549438%, 77.648926%)" d="M 85.324219 117.730469 C 85.71875 124.355469 89.625 130.984375 95.089844 134.097656 C 95.089844 125.914062 96.65625 117.730469 105.644531 116.171875 C 114.628906 114.609375 124.789062 116.171875 134.167969 115.78125 C 147.449219 114.609375 170.113281 118.121094 180.660156 107.988281 C 190.820312 98.242188 188.089844 78.757812 181.835938 67.453125 C 174.804688 54.203125 161.125 49.136719 147.0625 45.628906 C 130.261719 41.34375 113.066406 40.5625 96.265625 42.121094 C 76.730469 43.679688 54.070312 42.902344 35.703125 51.085938 C 26.324219 54.984375 17.730469 62.777344 15.773438 73.300781 C 14.214844 82.265625 14.996094 100.972656 21.246094 108.375 C 27.105469 115.78125 40.78125 118.898438 48.988281 118.898438 C 60.316406 118.898438 72.039062 118.898438 83.371094 117.730469 L 85.324219 117.730469 " fill-opacity="1" fill-rule="nonzero"/></g><path fill="rgb(43.919373%, 72.549438%, 77.648926%)" d="M 82.351562 121.742188 C 82.351562 121.742188 81.898438 121.871094 81.09375 122.054688 C 80.292969 122.238281 79.140625 122.484375 77.75 122.714844 C 77.054688 122.835938 76.304688 122.957031 75.503906 123.0625 C 74.703125 123.171875 73.859375 123.289062 72.980469 123.375 C 72.105469 123.460938 71.199219 123.5625 70.277344 123.621094 C 69.351562 123.683594 68.414062 123.738281 67.472656 123.777344 C 66.53125 123.804688 65.589844 123.816406 64.660156 123.816406 C 63.734375 123.816406 62.816406 123.769531 61.9375 123.726562 C 61.050781 123.683594 60.195312 123.601562 59.386719 123.507812 C 58.582031 123.417969 57.820312 123.296875 57.121094 123.164062 C 56.769531 123.089844 56.4375 123.035156 56.121094 122.957031 C 55.808594 122.875 55.507812 122.800781 55.230469 122.730469 C 54.671875 122.570312 54.195312 122.417969 53.804688 122.261719 C 53.414062 122.128906 53.125 121.976562 52.921875 121.890625 C 52.722656 121.796875 52.617188 121.742188 52.617188 121.742188 C 52.617188 121.742188 52.734375 121.769531 52.949219 121.8125 C 53.164062 121.859375 53.476562 121.933594 53.878906 121.996094 C 54.277344 122.074219 54.773438 122.128906 55.332031 122.207031 C 55.894531 122.261719 56.527344 122.320312 57.222656 122.367188 C 57.917969 122.414062 58.667969 122.441406 59.464844 122.46875 C 60.257812 122.492188 61.101562 122.488281 61.96875 122.5 C 62.40625 122.496094 62.84375 122.492188 63.292969 122.488281 C 63.738281 122.476562 64.195312 122.472656 64.652344 122.46875 C 65.5625 122.453125 66.492188 122.421875 67.421875 122.382812 C 68.351562 122.359375 69.28125 122.324219 70.195312 122.277344 C 71.109375 122.234375 72.015625 122.195312 72.886719 122.15625 C 74.632812 122.070312 76.265625 121.992188 77.664062 121.921875 C 79.066406 121.855469 80.238281 121.808594 81.058594 121.78125 C 81.878906 121.757812 82.351562 121.742188 82.351562 121.742188 " fill-opacity="1" fill-rule="nonzero"/><g clip-path="url(#id3)"><path fill="rgb(43.919373%, 72.549438%, 77.648926%)" d="M 159.015625 44.203125 C 159.015625 44.203125 159.160156 44.207031 159.441406 44.214844 C 159.71875 44.226562 160.125 44.246094 160.644531 44.292969 C 161.160156 44.347656 161.789062 44.410156 162.507812 44.527344 C 163.222656 44.636719 164.03125 44.777344 164.90625 44.976562 C 165.777344 45.171875 166.71875 45.414062 167.695312 45.71875 C 168.679688 46.027344 169.710938 46.367188 170.75 46.804688 C 171.007812 46.914062 171.269531 47.019531 171.53125 47.128906 C 171.792969 47.25 172.054688 47.367188 172.316406 47.488281 C 172.851562 47.714844 173.367188 47.996094 173.894531 48.265625 C 174.933594 48.832031 175.972656 49.441406 176.964844 50.125 L 177.707031 50.644531 L 178.421875 51.199219 C 178.902344 51.558594 179.347656 51.960938 179.796875 52.347656 C 180.253906 52.726562 180.660156 53.160156 181.078125 53.5625 C 181.484375 53.980469 181.859375 54.417969 182.242188 54.835938 C 182.601562 55.273438 182.949219 55.707031 183.28125 56.132812 C 183.589844 56.582031 183.890625 57.019531 184.183594 57.449219 C 184.457031 57.890625 184.710938 58.324219 184.957031 58.742188 C 185.199219 59.164062 185.386719 59.59375 185.589844 59.996094 C 185.796875 60.394531 185.964844 60.789062 186.109375 61.171875 C 186.257812 61.554688 186.410156 61.910156 186.527344 62.253906 C 186.746094 62.949219 186.945312 63.546875 187.066406 64.050781 C 187.300781 65.066406 187.417969 65.644531 187.417969 65.644531 C 187.417969 65.644531 187.183594 65.09375 186.804688 64.140625 C 186.613281 63.664062 186.324219 63.109375 186.03125 62.460938 C 185.878906 62.140625 185.6875 61.8125 185.5 61.460938 C 185.40625 61.285156 185.308594 61.105469 185.210938 60.921875 C 185.117188 60.738281 184.992188 60.558594 184.882812 60.371094 C 184.644531 60.003906 184.429688 59.609375 184.15625 59.226562 C 183.886719 58.84375 183.609375 58.445312 183.328125 58.039062 C 183.015625 57.652344 182.699219 57.253906 182.375 56.84375 C 182.023438 56.460938 181.683594 56.050781 181.320312 55.652344 C 180.941406 55.269531 180.566406 54.867188 180.160156 54.488281 C 179.953125 54.300781 179.75 54.109375 179.539062 53.921875 C 179.335938 53.730469 179.128906 53.539062 178.90625 53.359375 C 178.472656 52.996094 178.042969 52.617188 177.578125 52.28125 L 176.890625 51.761719 L 176.171875 51.273438 C 175.234375 50.605469 174.238281 50.007812 173.246094 49.445312 C 172.242188 48.910156 171.253906 48.367188 170.253906 47.925781 C 169.265625 47.472656 168.292969 47.0625 167.359375 46.699219 C 166.421875 46.347656 165.527344 46.019531 164.691406 45.746094 C 163.855469 45.476562 163.082031 45.238281 162.394531 45.046875 C 161.707031 44.851562 161.097656 44.691406 160.597656 44.566406 C 160.09375 44.449219 159.703125 44.347656 159.429688 44.289062 C 159.160156 44.234375 159.015625 44.203125 159.015625 44.203125 " fill-opacity="1" fill-rule="nonzero"/></g><path fill="rgb(100%, 100%, 100%)" d="M 29.6875 59.925781 C 29.6875 59.925781 29.761719 59.808594 29.921875 59.59375 C 29.996094 59.484375 30.101562 59.359375 30.222656 59.210938 C 30.285156 59.136719 30.351562 59.054688 30.421875 58.96875 C 30.496094 58.890625 30.578125 58.804688 30.664062 58.714844 C 30.996094 58.34375 31.433594 57.933594 31.953125 57.46875 C 32.222656 57.25 32.507812 57.015625 32.808594 56.769531 C 33.105469 56.515625 33.453125 56.304688 33.796875 56.050781 C 34.484375 55.539062 35.289062 55.082031 36.128906 54.574219 C 36.5625 54.347656 37.003906 54.113281 37.460938 53.871094 C 37.6875 53.753906 37.917969 53.632812 38.152344 53.515625 C 38.390625 53.402344 38.632812 53.300781 38.875 53.191406 C 39.363281 52.976562 39.859375 52.757812 40.363281 52.539062 C 40.867188 52.320312 41.390625 52.140625 41.917969 51.949219 C 42.445312 51.765625 42.972656 51.558594 43.511719 51.386719 C 44.050781 51.222656 44.59375 51.058594 45.136719 50.894531 C 45.683594 50.742188 46.222656 50.5625 46.777344 50.4375 C 47.324219 50.308594 47.871094 50.183594 48.414062 50.054688 C 48.960938 49.925781 49.496094 49.800781 50.035156 49.691406 C 50.574219 49.601562 51.105469 49.511719 51.625 49.421875 C 52.148438 49.335938 52.664062 49.242188 53.167969 49.167969 C 53.417969 49.128906 53.671875 49.089844 53.914062 49.054688 C 54.164062 49.027344 54.40625 49 54.648438 48.972656 C 55.613281 48.863281 56.527344 48.777344 57.371094 48.699219 C 58.210938 48.601562 58.988281 48.589844 59.679688 48.5625 C 60.363281 48.53125 60.964844 48.523438 61.457031 48.507812 C 62.441406 48.488281 63.003906 48.492188 63.003906 48.492188 C 63.003906 48.492188 62.449219 48.609375 61.480469 48.785156 C 61 48.875 60.410156 48.984375 59.734375 49.09375 C 59.0625 49.207031 58.296875 49.320312 57.476562 49.492188 C 56.652344 49.65625 55.761719 49.832031 54.816406 50 C 54.578125 50.042969 54.339844 50.089844 54.097656 50.132812 C 53.859375 50.1875 53.613281 50.242188 53.371094 50.296875 C 52.878906 50.414062 52.375 50.515625 51.863281 50.628906 C 51.351562 50.738281 50.835938 50.847656 50.308594 50.960938 C 49.789062 51.09375 49.261719 51.238281 48.730469 51.363281 C 48.199219 51.496094 47.664062 51.632812 47.128906 51.765625 C 46.585938 51.890625 46.0625 52.078125 45.53125 52.230469 C 44.996094 52.382812 44.460938 52.539062 43.929688 52.691406 C 43.402344 52.851562 42.886719 53.042969 42.367188 53.21875 C 41.855469 53.402344 41.335938 53.558594 40.835938 53.746094 C 40.335938 53.9375 39.84375 54.128906 39.359375 54.316406 C 39.121094 54.414062 38.875 54.503906 38.640625 54.601562 C 38.40625 54.703125 38.179688 54.804688 37.949219 54.90625 C 37.492188 55.105469 37.042969 55.304688 36.605469 55.496094 C 35.769531 55.9375 34.9375 56.300781 34.226562 56.726562 C 33.492188 57.121094 32.851562 57.535156 32.273438 57.890625 C 31.722656 58.28125 31.226562 58.605469 30.847656 58.917969 C 30.65625 59.0625 30.488281 59.203125 30.34375 59.328125 C 30.199219 59.449219 30.070312 59.550781 29.980469 59.644531 C 29.785156 59.820312 29.6875 59.925781 29.6875 59.925781 " fill-opacity="1" fill-rule="nonzero"/><g fill="rgb(100%, 100%, 100%)" fill-opacity="1"><g transform="translate(15.000006, 227.194911)"><g><path d="M 36.5625 1.140625 C 29.863281 1.140625 23.976562 -0.132812 18.90625 -2.6875 C 13.84375 -5.238281 9.921875 -8.835938 7.140625 -13.484375 C 4.359375 -18.128906 2.96875 -23.535156 2.96875 -29.703125 C 2.96875 -35.953125 4.335938 -41.398438 7.078125 -46.046875 C 9.828125 -50.691406 13.710938 -54.269531 18.734375 -56.78125 C 23.765625 -59.300781 29.632812 -60.5625 36.34375 -60.5625 C 40.53125 -60.5625 44.523438 -59.988281 48.328125 -58.84375 C 52.140625 -57.707031 55.492188 -56.070312 58.390625 -53.9375 L 51.640625 -41.703125 C 47.378906 -44.597656 42.925781 -46.046875 38.28125 -46.046875 C 33.863281 -46.046875 30.4375 -44.617188 28 -41.765625 C 25.5625 -38.910156 24.34375 -34.890625 24.34375 -29.703125 C 24.34375 -24.597656 25.597656 -20.597656 28.109375 -17.703125 C 30.617188 -14.816406 34.082031 -13.375 38.5 -13.375 C 43.226562 -13.375 47.6875 -14.820312 51.875 -17.71875 L 58.625 -5.59375 C 55.800781 -3.46875 52.484375 -1.8125 48.671875 -0.625 C 44.867188 0.550781 40.832031 1.140625 36.5625 1.140625 Z M 36.5625 1.140625 "/></g></g></g><g fill="rgb(100%, 100%, 100%)" fill-opacity="1"><g transform="translate(76.363375, 227.194911)"><g><path d="M 48.109375 -60.5625 C 55.035156 -60.5625 60.382812 -58.617188 64.15625 -54.734375 C 67.925781 -50.847656 69.8125 -45.285156 69.8125 -38.046875 L 69.8125 0 L 48.671875 0 L 48.671875 -34.734375 C 48.671875 -38.160156 47.945312 -40.691406 46.5 -42.328125 C 45.050781 -43.972656 42.84375 -44.796875 39.875 -44.796875 C 37.664062 -44.796875 35.609375 -44.28125 33.703125 -43.25 C 31.804688 -42.21875 30.207031 -40.828125 28.90625 -39.078125 L 28.90625 0 L 7.765625 0 L 7.765625 -81.125 L 28.90625 -81.125 L 28.90625 -51.765625 C 33.175781 -57.628906 39.578125 -60.5625 48.109375 -60.5625 Z M 48.109375 -60.5625 "/></g></g></g><g fill="rgb(100%, 100%, 100%)" fill-opacity="1"><g transform="translate(153.039027, 227.194911)"><g><path d="M 67.53125 -0.796875 C 64.175781 0.265625 60.632812 0.796875 56.90625 0.796875 C 53.394531 0.796875 50.398438 0.1875 47.921875 -1.03125 C 45.453125 -2.25 43.570312 -4 42.28125 -6.28125 C 39.84375 -4 36.945312 -2.226562 33.59375 -0.96875 C 30.238281 0.289062 26.617188 0.921875 22.734375 0.921875 C 16.492188 0.921875 11.5625 -0.640625 7.9375 -3.765625 C 4.320312 -6.890625 2.515625 -11.15625 2.515625 -16.5625 C 2.515625 -23.113281 5.617188 -27.988281 11.828125 -31.1875 C 18.035156 -34.394531 27.578125 -36.035156 40.453125 -36.109375 L 40.453125 -38.28125 C 40.453125 -41.09375 39.6875 -43.085938 38.15625 -44.265625 C 36.632812 -45.453125 34.125 -46.046875 30.625 -46.046875 C 24.300781 -46.046875 17.632812 -44.296875 10.625 -40.796875 L 4.90625 -54.046875 C 8.113281 -55.878906 12.609375 -57.421875 18.390625 -58.671875 C 24.179688 -59.929688 29.742188 -60.5625 35.078125 -60.5625 C 43.765625 -60.5625 50.238281 -58.828125 54.5 -55.359375 C 58.769531 -51.890625 60.90625 -46.613281 60.90625 -39.53125 L 60.90625 -17.375 C 60.90625 -16.15625 61.171875 -15.257812 61.703125 -14.6875 C 62.234375 -14.113281 63.035156 -13.828125 64.109375 -13.828125 L 66.390625 -14.046875 Z M 22.96875 -18.171875 C 22.96875 -16.265625 23.535156 -14.816406 24.671875 -13.828125 C 25.816406 -12.835938 27.457031 -12.34375 29.59375 -12.34375 C 33.707031 -12.34375 37.328125 -13.710938 40.453125 -16.453125 L 40.453125 -25.828125 C 35.804688 -25.515625 32.242188 -25.070312 29.765625 -24.5 C 27.285156 -23.9375 25.53125 -23.160156 24.5 -22.171875 C 23.476562 -21.179688 22.96875 -19.847656 22.96875 -18.171875 Z M 22.96875 -18.171875 "/></g></g></g><g fill="rgb(100%, 100%, 100%)" fill-opacity="1"><g transform="translate(221.372934, 227.194911)"><g><path d="M 33.140625 0.921875 C 25.441406 0.921875 19.9375 -0.734375 16.625 -4.046875 C 13.3125 -7.367188 11.65625 -12.875 11.65625 -20.5625 L 11.65625 -45.25 L 1.9375 -45.25 L 1.9375 -58.84375 L 4.6875 -58.84375 C 7.957031 -58.84375 10.164062 -59.429688 11.3125 -60.609375 C 12.457031 -61.796875 13.03125 -64.023438 13.03125 -67.296875 L 13.03125 -73.359375 L 31.65625 -73.359375 L 31.65625 -59.421875 L 46.734375 -59.421875 L 46.734375 -45.25 L 31.65625 -45.25 L 31.65625 -21.140625 C 31.65625 -18.546875 32.1875 -16.640625 33.25 -15.421875 C 34.3125 -14.203125 35.988281 -13.59375 38.28125 -13.59375 C 40.414062 -13.59375 43.082031 -14.242188 46.28125 -15.546875 L 49.484375 -2.28125 C 47.421875 -1.289062 44.921875 -0.507812 41.984375 0.0625 C 39.054688 0.632812 36.109375 0.921875 33.140625 0.921875 Z M 33.140625 0.921875 "/></g></g></g><g fill="rgb(15.289307%, 68.238831%, 37.649536%)" fill-opacity="1"><g transform="translate(272.667542, 227.194911)"><g><path d="M 30.390625 -41.25 L 2.40625 -81.125 L 28.90625 -81.125 L 43.65625 -58.625 L 58.28125 -81.125 L 84.78125 -81.125 L 56.90625 -41.25 L 85.8125 0 L 59.296875 0 L 43.65625 -23.875 L 28 0 L 1.484375 0 Z M 30.390625 -41.25 "/></g></g></g></svg>